<svg width="32" height="32" viewBox="0 0 32 32" fill="none" xmlns="http://www.w3.org/2000/svg">
<g id="Weather  big-icon/CloudMoon">
<path id="Union" fill-rule="evenodd" clip-rule="evenodd" d="M11.8196 2.02566C11.4838 1.94813 11.1318 2.04893 10.888 2.2924C10.6442 2.53588 10.5429 2.88774 10.6199 3.22359C10.8853 4.38042 10.8524 5.5857 10.5245 6.72636C10.1965 7.86703 9.58422 8.9057 8.74497 9.74495C7.90573 10.5842 6.86706 11.1965 5.72639 11.5245C4.58567 11.8524 3.38036 11.8854 2.22359 11.62C1.88765 11.543 1.5357 11.6443 1.29222 11.8883C1.04874 12.1323 0.948056 12.4844 1.02577 12.8202C1.3461 14.2043 1.98897 15.4931 2.90197 16.5815C3.81497 17.67 4.97226 18.5273 6.2795 19.0835C6.5809 19.2118 6.926 19.1843 7.2033 19.01L10.6997 16.8118C11.1698 16.8459 11.6357 16.9404 12.0855 17.0945C12.2259 16.573 12.4151 16.0681 12.6494 15.586L18.3208 12.0203C18.598 11.8461 18.7723 11.5472 18.7875 11.2202C18.794 11.0798 18.7973 10.9388 18.7973 10.7973L18.7973 10.7972C18.7971 8.76162 18.1072 6.78619 16.8399 5.19317C15.5727 3.60013 13.8029 2.48361 11.8196 2.02566Z" fill="#FBB03B"/>
<path id="Union_2" fill-rule="evenodd" clip-rule="evenodd" d="M8.83236 15.0349C9.43324 14.9724 10.0382 14.9941 10.63 15.0982C10.8816 14.442 11.2066 13.8124 11.6011 13.2221C12.6449 11.6598 14.1286 10.4422 15.8645 9.72315C17.6004 9.00412 19.5106 8.81598 21.3534 9.18254C23.1962 9.5491 24.8889 10.4539 26.2175 11.7825C27.5461 13.1111 28.4509 14.8038 28.8175 16.6466C29.184 18.4895 28.9959 20.3996 28.2769 22.1355C27.5578 23.8714 26.3402 25.3551 24.7779 26.399C23.2157 27.4428 21.3789 28 19.5 28H9.49918C8.55541 27.9992 7.62313 27.7929 6.76714 27.3954C5.91115 26.998 5.15198 26.4189 4.5424 25.6984C3.93282 24.9779 3.48744 24.1333 3.23723 23.2233C2.98702 22.3133 2.93798 21.3597 3.09351 20.4288C3.24904 19.498 3.60541 18.6121 4.13786 17.8329C4.67031 17.0537 5.36606 16.3997 6.17676 15.9165C6.98745 15.4333 7.89365 15.1325 8.83236 15.0349Z" fill="white"/>
</g>
</svg>
