<svg width="32" height="32" viewBox="0 0 32 32" fill="none" xmlns="http://www.w3.org/2000/svg">
<g id="Weather  big-icon/CloudSnow">
<path id="Vector" d="M19.5 31C20.3284 31 21 30.3284 21 29.5C21 28.6716 20.3284 28 19.5 28C18.6716 28 18 28.6716 18 29.5C18 30.3284 18.6716 31 19.5 31Z" fill="white"/>
<path id="Vector_2" d="M8.5 31C9.32843 31 10 30.3284 10 29.5C10 28.6716 9.32843 28 8.5 28C7.67157 28 7 28.6716 7 29.5C7 30.3284 7.67157 31 8.5 31Z" fill="white"/>
<path id="Vector_3" d="M14.5 28C15.3284 28 16 27.3284 16 26.5C16 25.6716 15.3284 25 14.5 25C13.6716 25 13 25.6716 13 26.5C13 27.3284 13.6716 28 14.5 28Z" fill="white"/>
<path id="Vector_4" d="M20.5 26C21.3284 26 22 25.3284 22 24.5C22 23.6716 21.3284 23 20.5 23C19.6716 23 19 23.6716 19 24.5C19 25.3284 19.6716 26 20.5 26Z" fill="white"/>
<path id="Vector_5" d="M9.5 26C10.3284 26 11 25.3284 11 24.5C11 23.6716 10.3284 23 9.5 23C8.67157 23 8 23.6716 8 24.5C8 25.3284 8.67157 26 9.5 26Z" fill="white"/>
<path id="Union" fill-rule="evenodd" clip-rule="evenodd" d="M8.83236 8.03487C9.43324 7.97238 10.0382 7.99414 10.63 8.09816C10.8816 7.44197 11.2066 6.81243 11.6011 6.22209C12.6449 4.65982 14.1286 3.44218 15.8645 2.72315C17.6004 2.00412 19.5106 1.81598 21.3534 2.18254C23.1962 2.5491 24.8889 3.45389 26.2175 4.78249C27.5461 6.11109 28.4509 7.80383 28.8175 9.64665C29.184 11.4895 28.9959 13.3996 28.2769 15.1355C27.5578 16.8714 26.3402 18.3551 24.7779 19.399C23.2157 20.4428 21.3789 21 19.5 21H9.49918C8.55541 20.9992 7.62313 20.7929 6.76714 20.3954C5.91115 19.998 5.15198 19.4189 4.5424 18.6984C3.93282 17.9779 3.48744 17.1333 3.23723 16.2233C2.98702 15.3133 2.93798 14.3597 3.09351 13.4288C3.24904 12.498 3.60541 11.6121 4.13786 10.8329C4.67031 10.0537 5.36606 9.39972 6.17676 8.91653C6.98745 8.43334 7.89365 8.13248 8.83236 8.03487Z" fill="white"/>
</g>
</svg>
