<svg width="32" height="32" viewBox="0 0 32 32" fill="none" xmlns="http://www.w3.org/2000/svg">
<g id="Weather  big-icon/Sun">
<path id="Union" fill-rule="evenodd" clip-rule="evenodd" d="M17 2C17 1.44772 16.5523 1 16 1C15.4477 1 15 1.44772 15 2V4.5C15 5.05228 15.4477 5.5 16 5.5C16.5523 5.5 17 5.05228 17 4.5V2ZM26.6067 6.80763C26.9972 6.41711 26.9972 5.78394 26.6067 5.39342C26.2162 5.00289 25.583 5.00289 25.1925 5.39342L23.4247 7.16119C23.0342 7.55171 23.0342 8.18488 23.4247 8.5754C23.8153 8.96592 24.4484 8.96592 24.8389 8.5754L26.6067 6.80763ZM7.5 16C7.5 11.3056 11.3056 7.5 16 7.5C20.6944 7.5 24.5 11.3056 24.5 16C24.5 20.6944 20.6944 24.5 16 24.5C11.3056 24.5 7.5 20.6944 7.5 16ZM1 16C1 15.4477 1.44772 15 2 15H4.5C5.05228 15 5.5 15.4477 5.5 16C5.5 16.5523 5.05228 17 4.5 17H2C1.44772 17 1 16.5523 1 16ZM27.5 15C26.9477 15 26.5 15.4477 26.5 16C26.5 16.5523 26.9477 17 27.5 17H30C30.5523 17 31 16.5523 31 16C31 15.4477 30.5523 15 30 15H27.5ZM8.57546 23.4246C8.96598 23.8151 8.96598 24.4483 8.57546 24.8388L6.80769 26.6066C6.41717 26.9971 5.784 26.9971 5.39348 26.6066C5.00295 26.2161 5.00295 25.5829 5.39348 25.1924L7.16125 23.4246C7.55177 23.0341 8.18494 23.0341 8.57546 23.4246ZM24.8389 23.4246C24.4484 23.0341 23.8153 23.0341 23.4247 23.4246C23.0342 23.8151 23.0342 24.4483 23.4247 24.8388L25.1925 26.6066C25.583 26.9971 26.2162 26.9971 26.6067 26.6066C26.9972 26.2161 26.9972 25.5829 26.6067 25.1924L24.8389 23.4246ZM17 27.5C17 26.9477 16.5523 26.5 16 26.5C15.4477 26.5 15 26.9477 15 27.5V30C15 30.5523 15.4477 31 16 31C16.5523 31 17 30.5523 17 30V27.5ZM5.39348 5.39342C5.784 5.00289 6.41717 5.00289 6.80769 5.39342L8.57546 7.16119C8.96598 7.55171 8.96598 8.18487 8.57546 8.5754C8.18494 8.96592 7.55177 8.96592 7.16125 8.5754L5.39348 6.80763C5.00295 6.41711 5.00295 5.78394 5.39348 5.39342Z" fill="#FBB03B"/>
</g>
</svg>
