<svg width="32" height="32" viewBox="0 0 32 32" fill="none" xmlns="http://www.w3.org/2000/svg">
<g id="Weather  big-icon/CloudLightning">
<path id="Vector" opacity="0.2" d="M11 11.5C11 9.81886 11.4985 8.17547 12.4325 6.77766C13.3665 5.37984 14.694 4.29037 16.2472 3.64703C17.8004 3.00368 19.5094 2.83535 21.1583 3.16333C22.8071 3.4913 24.3217 4.30085 25.5104 5.4896C26.6992 6.67834 27.5087 8.1929 27.8367 9.84174C28.1646 11.4906 27.9963 13.1996 27.353 14.7528C26.7096 16.306 25.6202 17.6335 24.2223 18.5675C22.8245 19.5015 21.1811 20 19.5 20H9.5C8.70142 19.9993 7.91257 19.8248 7.18827 19.4884C6.46397 19.1521 5.8216 18.6621 5.3058 18.0525C4.79 17.4428 4.41314 16.7281 4.20143 15.9581C3.98971 15.1881 3.94821 14.3813 4.07981 13.5936C4.21142 12.806 4.51296 12.0564 4.9635 11.3971C5.41403 10.7377 6.00274 10.1844 6.68872 9.77553C7.37469 9.36667 8.14147 9.1121 8.93576 9.0295C9.73006 8.94691 10.5328 9.03827 11.2882 9.29724" fill="white"/>
<path id="Vector (Stroke)" fill-rule="evenodd" clip-rule="evenodd" d="M16.8299 19.164C17.2916 19.467 17.4203 20.0869 17.1173 20.5487L14.8524 24H19.2813C19.6487 24 19.9866 24.2016 20.1612 24.525C20.3358 24.8483 20.3189 25.2414 20.1173 25.5487L16.836 30.5487C16.533 31.0104 15.9131 31.1391 15.4513 30.8361C14.9896 30.533 14.8609 29.9131 15.164 29.4513L17.4289 26H13C12.6325 26 12.2946 25.7984 12.12 25.4751C11.9455 25.1517 11.9623 24.7586 12.164 24.4513L15.4452 19.4513C15.7482 18.9896 16.3682 18.8609 16.8299 19.164Z" fill="#9CB8FF"/>
<path id="Union" fill-rule="evenodd" clip-rule="evenodd" d="M8.83236 8.03487C9.43324 7.97238 10.0382 7.99414 10.63 8.09816C10.8816 7.44197 11.2066 6.81243 11.6011 6.22209C12.6449 4.65982 14.1286 3.44218 15.8645 2.72315C17.6004 2.00412 19.5106 1.81598 21.3534 2.18254C23.1962 2.5491 24.8889 3.45389 26.2175 4.78249C27.5461 6.11109 28.4509 7.80383 28.8175 9.64665C29.184 11.4895 28.9959 13.3996 28.2769 15.1355C27.5578 16.8714 26.3402 18.3551 24.7779 19.399C23.2157 20.4428 21.3789 21 19.5 21H9.49918C8.55541 20.9992 7.62313 20.7929 6.76714 20.3954C5.91115 19.998 5.15198 19.4189 4.5424 18.6984C3.93282 17.9779 3.48744 17.1333 3.23723 16.2233C2.98702 15.3133 2.93798 14.3597 3.09351 13.4288C3.24904 12.498 3.60541 11.6121 4.13786 10.8329C4.67031 10.0537 5.36606 9.39972 6.17676 8.91653C6.98745 8.43334 7.89365 8.13248 8.83236 8.03487Z" fill="white"/>
</g>
</svg>
